<?xml version="1.0" encoding="UTF-8" standalone="no"?>
<svg
   width="40"
   height="40"
   viewBox="0 0 40 40"
   fill="none"
   version="1.1"
   id="svg1"
   sodipodi:docname="email.svg"
   inkscape:version="1.4 (86a8ad7, 2024-10-11)"
   xmlns:inkscape="http://www.inkscape.org/namespaces/inkscape"
   xmlns:sodipodi="http://sodipodi.sourceforge.net/DTD/sodipodi-0.dtd"
   xmlns="http://www.w3.org/2000/svg"
   xmlns:svg="http://www.w3.org/2000/svg">
  <defs
     id="defs1" />
  <sodipodi:namedview
     id="namedview1"
     pagecolor="#ffffff"
     bordercolor="#000000"
     borderopacity="0.25"
     inkscape:showpageshadow="2"
     inkscape:pageopacity="0.0"
     inkscape:pagecheckerboard="0"
     inkscape:deskcolor="#d1d1d1"
     inkscape:zoom="8.4895833"
     inkscape:cx="7.2441718"
     inkscape:cy="8.3042945"
     inkscape:window-width="1920"
     inkscape:window-height="1017"
     inkscape:window-x="-8"
     inkscape:window-y="-8"
     inkscape:window-maximized="1"
     inkscape:current-layer="svg1" />
  <circle
     style="fill:#303a4d;fill-opacity:1;stroke-width:8.2245"
     id="path2"
     cx="20"
     cy="20"
     r="20" />
  <path
     d="m 10.1912,11.99505 7.024,7.0271 c 1.532,1.529 4.0362,1.5304 5.5695,0 l 7.024,-7.0271 c 0.0708,-0.0707 0.0605,-0.1872 -0.0216,-0.2444 -0.7164,-0.4997 -1.5881,-0.7959 -2.527,-0.7959 H 12.7399 c -0.939,0 -1.8107,0.2963 -2.5271,0.7959 -0.082,0.0572 -0.0924,0.1737 -0.0216,0.2444 z m -1.8771,3.3855 c 0,-0.7384 0.1831,-1.436 0.5055,-2.0492 0.0505,-0.096 0.1783,-0.1153 0.2549,-0.0387 l 6.9352,6.9351 c 2.1961,2.1994 5.7832,2.2006 7.9806,0 l 6.9352,-6.9351 c 0.0766,-0.0766 0.2044,-0.0573 0.2548,0.0387 0.3225,0.6132 0.5056,1.3108 0.5056,2.0492 v 9.2389 c 0,2.4423 -1.9866,4.4258 -4.4258,4.4258 H 12.7399 c -2.4391,0 -4.4258,-1.9835 -4.4258,-4.4258 z"
     fill="#303A4D"
     id="path1"
     style="fill:#ffffff" />
</svg>
