<?xml version="1.0" encoding="UTF-8" standalone="no"?>
<svg
   width="40"
   height="40"
   viewBox="0 0 40 40"
   fill="none"
   version="1.1"
   id="svg1"
   sodipodi:docname="ig.svg"
   xml:space="preserve"
   inkscape:version="1.4 (86a8ad7, 2024-10-11)"
   xmlns:inkscape="http://www.inkscape.org/namespaces/inkscape"
   xmlns:sodipodi="http://sodipodi.sourceforge.net/DTD/sodipodi-0.dtd"
   xmlns="http://www.w3.org/2000/svg"
   xmlns:svg="http://www.w3.org/2000/svg"><sodipodi:namedview
     id="namedview1"
     pagecolor="#ffffff"
     bordercolor="#000000"
     borderopacity="0.25"
     inkscape:showpageshadow="2"
     inkscape:pageopacity="0.0"
     inkscape:pagecheckerboard="0"
     inkscape:deskcolor="#d1d1d1"
     inkscape:zoom="7.2036503"
     inkscape:cx="39.702094"
     inkscape:cy="23.2521"
     inkscape:window-width="1920"
     inkscape:window-height="1017"
     inkscape:window-x="-8"
     inkscape:window-y="-8"
     inkscape:window-maximized="1"
     inkscape:current-layer="svg1" /><circle
     cx="20"
     cy="20"
     r="20"
     fill="#303A4D"
     id="circle1" /><defs
     id="defs1"><clipPath
       id="clip0_182_218"><rect
         width="16"
         height="16"
         fill="white"
         transform="translate(12 12)"
         id="rect1" /></clipPath></defs><g
     style="fill:#ffffff"
     id="g2"
     transform="matrix(0.72727273,0,0,0.72727273,11.272727,11.272727)"><path
       fill-rule="evenodd"
       clip-rule="evenodd"
       d="m 12,18 c 3.3137,0 6,-2.6863 6,-6 0,-3.31371 -2.6863,-6 -6,-6 -3.31371,0 -6,2.68629 -6,6 0,3.3137 2.68629,6 6,6 z m 0,-2 c 2.2091,0 4,-1.7909 4,-4 0,-2.20914 -1.7909,-4 -4,-4 -2.20914,0 -4,1.79086 -4,4 0,2.2091 1.79086,4 4,4 z"
       fill="#0f0f0f"
       id="path1-0"
       style="fill:#ffffff" /><path
       d="m 18,5 c -0.5523,0 -1,0.44772 -1,1 0,0.55228 0.4477,1 1,1 0.5523,0 1,-0.44772 1,-1 0,-0.55228 -0.4477,-1 -1,-1 z"
       fill="#0f0f0f"
       id="path2"
       style="fill:#ffffff" /><path
       fill-rule="evenodd"
       clip-rule="evenodd"
       d="M 1.65396,4.27606 C 1,5.55953 1,7.23969 1,10.6 v 2.8 c 0,3.3603 0,5.0405 0.65396,6.3239 0.57524,1.129 1.49312,2.0469 2.6221,2.6221 C 5.55953,23 7.23969,23 10.6,23 h 2.8 c 3.3603,0 5.0405,0 6.3239,-0.654 1.129,-0.5752 2.0469,-1.4931 2.6221,-2.6221 C 23,18.4405 23,16.7603 23,13.4 V 10.6 C 23,7.23969 23,5.55953 22.346,4.27606 21.7708,3.14708 20.8529,2.2292 19.7239,1.65396 18.4405,1 16.7603,1 13.4,1 H 10.6 C 7.23969,1 5.55953,1 4.27606,1.65396 3.14708,2.2292 2.2292,3.14708 1.65396,4.27606 Z M 13.4,3 H 10.6 C 8.88684,3 7.72225,3.00156 6.82208,3.0751 5.94524,3.14674 5.49684,3.27659 5.18404,3.43597 4.43139,3.81947 3.81947,4.43139 3.43597,5.18404 3.27659,5.49684 3.14674,5.94524 3.0751,6.82208 3.00156,7.72225 3,8.88684 3,10.6 v 2.8 c 0,1.7132 0.00156,2.8777 0.0751,3.7779 0.07164,0.8769 0.20149,1.3253 0.36087,1.6381 0.3835,0.7526 0.99542,1.3645 1.74807,1.748 0.3128,0.1594 0.7612,0.2893 1.63804,0.3609 C 7.72225,20.9984 8.88684,21 10.6,21 h 2.8 c 1.7132,0 2.8777,-0.0016 3.7779,-0.0751 0.8769,-0.0716 1.3253,-0.2015 1.6381,-0.3609 0.7526,-0.3835 1.3645,-0.9954 1.748,-1.748 0.1594,-0.3128 0.2893,-0.7612 0.3609,-1.6381 C 20.9984,16.2777 21,15.1132 21,13.4 V 10.6 C 21,8.88684 20.9984,7.72225 20.9249,6.82208 20.8533,5.94524 20.7234,5.49684 20.564,5.18404 20.1805,4.43139 19.5686,3.81947 18.816,3.43597 18.5032,3.27659 18.0548,3.14674 17.1779,3.0751 16.2777,3.00156 15.1132,3 13.4,3 Z"
       fill="#0f0f0f"
       id="path3"
       style="fill:#ffffff" /></g></svg>
