<?xml version="1.0" encoding="UTF-8" standalone="no"?>
<!-- Uploaded to: SVG Repo, www.svgrepo.com, Generator: SVG Repo Mixer Tools -->

<svg
   fill="#000000"
   height="40"
   width="40"
   version="1.1"
   id="Layer_1"
   viewBox="0 0 15.4 15.4"
   xml:space="preserve"
   sodipodi:docname="wa.svg"
   inkscape:version="1.4 (86a8ad7, 2024-10-11)"
   xmlns:inkscape="http://www.inkscape.org/namespaces/inkscape"
   xmlns:sodipodi="http://sodipodi.sourceforge.net/DTD/sodipodi-0.dtd"
   xmlns="http://www.w3.org/2000/svg"
   xmlns:svg="http://www.w3.org/2000/svg"><defs
   id="defs1" /><sodipodi:namedview
   id="namedview1"
   pagecolor="#ffffff"
   bordercolor="#000000"
   borderopacity="0.25"
   inkscape:showpageshadow="2"
   inkscape:pageopacity="0.0"
   inkscape:pagecheckerboard="0"
   inkscape:deskcolor="#d1d1d1"
   inkscape:zoom="12.105103"
   inkscape:cx="-0.20652447"
   inkscape:cy="31.680854"
   inkscape:window-width="1920"
   inkscape:window-height="1017"
   inkscape:window-x="-8"
   inkscape:window-y="-8"
   inkscape:window-maximized="1"
   inkscape:current-layer="Layer_1" />
<circle
   style="fill:#303a4d;fill-opacity:1;stroke-width:0.317101"
   id="path1"
   cx="7.6999998"
   cy="7.6999998"
   r="7.6999998" /><g
   id="XMLID_468_"
   transform="matrix(0.02000002,0,0,0.02,4.6199898,4.6199998)"
   style="fill:#ffffff">
	<path
   id="XMLID_469_"
   d="m 227.904,176.981 c -0.6,-0.288 -23.054,-11.345 -27.044,-12.781 -1.629,-0.585 -3.374,-1.156 -5.23,-1.156 -3.032,0 -5.579,1.511 -7.563,4.479 -2.243,3.334 -9.033,11.271 -11.131,13.642 -0.274,0.313 -0.648,0.687 -0.872,0.687 -0.201,0 -3.676,-1.431 -4.728,-1.888 -24.087,-10.463 -42.37,-35.624 -44.877,-39.867 -0.358,-0.61 -0.373,-0.887 -0.376,-0.887 0.088,-0.323 0.898,-1.135 1.316,-1.554 1.223,-1.21 2.548,-2.805 3.83,-4.348 0.607,-0.731 1.215,-1.463 1.812,-2.153 1.86,-2.164 2.688,-3.844 3.648,-5.79 l 0.503,-1.011 c 2.344,-4.657 0.342,-8.587 -0.305,-9.856 -0.531,-1.062 -10.012,-23.944 -11.02,-26.348 -2.424,-5.801 -5.627,-8.502 -10.078,-8.502 -0.413,0 0,0 -1.732,0.073 -2.109,0.089 -13.594,1.601 -18.672,4.802 C 90,87.918 80.89,98.74 80.89,117.772 c 0,17.129 10.87,33.302 15.537,39.453 0.116,0.155 0.329,0.47 0.638,0.922 17.873,26.102 40.154,45.446 62.741,54.469 21.745,8.686 32.042,9.69 37.896,9.69 0.001,0 0.001,0 0.001,0 2.46,0 4.429,-0.193 6.166,-0.364 l 1.102,-0.105 c 7.512,-0.666 24.02,-9.22 27.775,-19.655 2.958,-8.219 3.738,-17.199 1.77,-20.458 -1.348,-2.216 -3.671,-3.331 -6.612,-4.743 z"
   style="fill:#ffffff" />
	<path
   id="XMLID_470_"
   d="M 156.734,0 C 73.318,0 5.454,67.354 5.454,150.143 c 0,26.777 7.166,52.988 20.741,75.928 L 0.212,302.716 c -0.484,1.429 -0.124,3.009 0.933,4.085 C 1.908,307.58 2.943,308 4,308 c 0.405,0 0.813,-0.061 1.211,-0.188 l 79.92,-25.396 c 21.87,11.685 46.588,17.853 71.604,17.853 C 240.143,300.27 308,232.923 308,150.143 308,67.354 240.143,0 156.734,0 Z m 0,268.994 c -23.539,0 -46.338,-6.797 -65.936,-19.657 -0.659,-0.433 -1.424,-0.655 -2.194,-0.655 -0.407,0 -0.815,0.062 -1.212,0.188 L 47.357,261.596 60.281,223.467 C 60.699,222.233 60.49,220.872 59.72,219.82 44.796,199.428 36.907,175.335 36.907,150.143 36.907,84.6 90.661,31.276 156.733,31.276 c 66.064,0 119.812,53.324 119.812,118.867 10e-4,65.535 -53.746,118.851 -119.811,118.851 z"
   style="fill:#ffffff" />
</g>
</svg>
